<?xml version="1.0" encoding="UTF-8"?>
<!DOCTYPE svg PUBLIC "-//W3C//DTD SVG 1.1//EN" "http://www.w3.org/Graphics/SVG/1.1/DTD/svg11.dtd">
<svg xmlns="http://www.w3.org/2000/svg" version="1.1" width="128px" height="128px" style="shape-rendering:geometricPrecision; text-rendering:geometricPrecision; image-rendering:optimizeQuality; fill-rule:evenodd; clip-rule:evenodd" xmlns:xlink="http://www.w3.org/1999/xlink">
<g><path style="opacity:0.968" fill="#293b96" d="M 57.5,4.5 C 76.3058,10.8255 94.9725,17.6588 113.5,25C 114.451,28.0567 114.784,31.2234 114.5,34.5C 108.491,34.6662 102.491,34.4995 96.5,34C 84.3356,29.0011 72.0022,24.5011 59.5,20.5C 46.0344,25.1003 32.701,30.1003 19.5,35.5C 18.3337,53.8242 18.167,72.1576 19,90.5C 31.5435,95.854 44.0435,101.354 56.5,107C 58.5,107.667 60.5,107.667 62.5,107C 74.9565,101.354 87.4565,95.854 100,90.5C 100.5,78.8381 100.667,67.1714 100.5,55.5C 96.8333,55.5 93.1667,55.5 89.5,55.5C 89.5,50.8333 89.5,46.1667 89.5,41.5C 101.5,41.5 113.5,41.5 125.5,41.5C 125.5,46.1667 125.5,50.8333 125.5,55.5C 121.833,55.5 118.167,55.5 114.5,55.5C 114.833,70.5148 114.499,85.5148 113.5,100.5C 97.8333,107.333 82.1667,114.167 66.5,121C 63.6487,122.608 60.6487,123.274 57.5,123C 40.2079,115.403 22.8745,107.903 5.5,100.5C 4.33351,75.5067 4.16684,50.5067 5,25.5C 22.6227,18.5755 40.1227,11.5755 57.5,4.5 Z"/></g>
<g><path style="opacity:0.953" fill="#293b95" d="M 28.5,41.5 C 33.1667,41.5 37.8333,41.5 42.5,41.5C 42.8328,58.5131 42.4995,75.5131 41.5,92.5C 37.5,90.8333 33.5,89.1667 29.5,87.5C 28.5006,72.1811 28.1673,56.8478 28.5,41.5 Z"/></g>
<g><path style="opacity:0.975" fill="#293b95" d="M 66.5,57.5 C 79.7459,57.6749 85.9125,64.3416 85,77.5C 80.3236,89.9538 71.8236,93.4538 59.5,88C 52.1276,81.3438 50.6276,73.5104 55,64.5C 58.2635,61.0374 62.0968,58.7041 66.5,57.5 Z"/></g>
</svg>
